<svg width="54" height="35" viewBox="0 0 54 35" fill="none" xmlns="http://www.w3.org/2000/svg">
<path d="M41.2657 0.574265C40.9171 0.902416 40.5684 1.39464 40.5069 1.66127C40.4453 1.92789 40.4043 6.25539 40.4453 11.2802C40.4453 11.2802 40.5069 12.2031 40.5069 16.4076C40.5069 20.612 41.0401 21.535 41.0401 21.535C41.758 23.0732 42.5168 23.9141 43.7679 24.5704C44.7523 25.1036 44.9574 25.1241 47.6852 25.1241C50.2694 25.1241 50.6591 25.0626 51.6435 24.6319C53.0792 23.9961 53.5304 23.3808 53.5304 22.1502C53.5304 20.2429 52.2178 19.4225 50.0438 19.9762C47.3981 20.653 46.1265 20.2429 45.7368 18.5611C45.6342 18.1099 45.5317 15.9769 45.5317 13.8029V9.86506L48.5261 9.80353L51.5205 9.742L52.1358 9.04468C52.6895 8.4294 52.751 8.24481 52.669 7.34239C52.587 6.60405 52.4229 6.17335 52.0127 5.78367C51.4794 5.25043 51.3974 5.22992 48.5056 5.16839L45.5317 5.10686V3.4661C45.5317 0.922928 44.7934 0 42.8039 0C42.0861 0 41.758 0.123056 41.2657 0.574265Z" fill="black"/>
<path d="M21.2486 3.8968C19.8744 4.30699 19.0746 5.74266 19.4642 7.11679C19.5668 7.48597 20.7973 9.14723 22.192 10.8085C23.5866 12.4698 24.8172 13.967 24.8992 14.1105C25.0018 14.2746 24.0994 15.5052 22.3766 17.5766C19.6078 20.8787 19.3002 21.4734 19.5873 22.745C19.6488 23.0732 20.0385 23.6474 20.4282 23.9961C21.0024 24.5088 21.3184 24.6914 22.1388 24.6914C22.8826 24.6914 23.279 24.4883 23.5456 24.2422C23.7712 24.0576 27.0527 20.2224 30.847 15.7513C38.2304 6.99374 38.2919 6.9117 37.7177 5.394C37.369 4.51209 36.6512 3.91731 35.6667 3.77375C34.3131 3.54815 33.6773 4.04037 31.0726 7.23985L28.6525 10.1932L26.1093 7.15781C24.284 4.94279 23.4431 4.08139 23.0329 3.97884C22.7047 3.91732 22.3151 3.83528 22.151 3.79426C21.9869 3.75324 21.5767 3.81477 21.2486 3.8968Z" fill="black"/>
<path d="M7.07644 4.30699C4.75887 4.57361 1.60041 5.78367 0.472386 6.82966L0.000667146 7.23985V20.3454C0.000667146 20.3454 0.000667312 24.7485 0.000667545 28.9594C0.000667545 32.9289 -0.0476321 33.4437 0.67748 34.1688C1.79108 35.2824 3.79492 35.3378 4.77938 33.9637C5.21008 33.3689 5.23059 33.0818 5.29211 28.9594L5.35364 24.5704L5.80485 24.6934C7.36357 25.1446 8.49159 25.2677 10.2349 25.1856C12.8396 25.0831 14.3163 24.4473 15.875 22.745C17.2697 21.2478 17.8029 19.8942 18.0695 17.1459C18.6848 10.7059 17.1466 6.78864 13.2908 5.02482C11.5885 4.24546 9.55809 4.01986 7.07644 4.30699ZM10.2759 9.45487C11.9987 10.0496 12.7371 11.4853 12.7781 14.3977C12.8396 17.7612 12.3884 18.9918 10.7887 19.8327C9.92726 20.3044 7.77376 20.2634 6.46115 19.7506L5.43568 19.361L5.37415 14.8489L5.33313 10.3163L6.133 9.96761C7.71223 9.24978 9.12739 9.0857 10.2759 9.45487Z" fill="black"/>
<path d="M31.1751 16.7973C30.3342 17.8022 29.6164 18.7662 29.5754 18.9097C29.5344 19.1559 33.5542 24.1602 34.3131 24.796C34.4977 24.9395 35.0719 25.1241 35.5436 25.1651C36.6512 25.2882 37.6151 24.837 38.0458 23.9961C38.456 23.1962 38.4355 21.7606 37.9843 21.1043C37.369 20.1813 33.0005 14.9719 32.8569 14.9719C32.7749 14.9719 32.016 15.7923 31.1751 16.7973Z" fill="black"/>
</svg>
